<svg width="523" height="514" viewBox="0 0 523 514" fill="none" xmlns="http://www.w3.org/2000/svg">
<rect width="523" height="514" fill="white"/>
<path d="M309.429 318C309.429 316.619 308.309 315.5 306.929 315.5C305.548 315.5 304.429 316.619 304.429 318H309.429ZM298.404 175.669C297.116 175.17 295.668 175.809 295.169 177.096L287.035 198.074C286.536 199.362 287.174 200.81 288.462 201.309C289.749 201.808 291.197 201.169 291.697 199.882L298.927 181.235L317.574 188.465C318.862 188.964 320.31 188.326 320.809 187.038C321.308 185.751 320.669 184.303 319.382 183.803L298.404 175.669ZM226.933 373.46L226.501 370.997L226.933 373.46ZM226.933 373.46L227.365 375.922C241.26 373.484 261.539 366.962 278.406 357.253C286.843 352.396 294.541 346.676 300.157 340.171C305.78 333.657 309.429 326.215 309.429 318H306.929H304.429C304.429 324.652 301.487 330.979 296.372 336.904C291.25 342.837 284.064 348.227 275.911 352.92C259.598 362.31 239.88 368.65 226.501 370.997L226.933 373.46ZM217 384.5H214.5V406.5H217H219.5V384.5H217ZM227 416.5V419H296.563V416.5V414H227V416.5ZM306.559 406.637L309.059 406.651C309.266 370.533 309.904 245.998 308.998 222.902L306.5 223L304.002 223.098C304.902 246.046 304.266 370.404 304.059 406.623L306.559 406.637ZM306.5 223L308.998 222.902C308.46 209.182 306.174 197.745 304.017 189.726C302.939 185.715 301.891 182.554 301.109 180.386C300.718 179.302 300.393 178.465 300.163 177.893C300.048 177.607 299.956 177.388 299.893 177.237C299.861 177.161 299.836 177.103 299.818 177.062C299.809 177.041 299.802 177.025 299.797 177.013C299.794 177.007 299.792 177.002 299.791 176.999C299.79 176.997 299.789 176.995 299.789 176.994C299.788 176.993 299.788 176.993 299.788 176.992C299.788 176.992 299.787 176.991 297.5 178C295.213 179.009 295.212 179.009 295.212 179.008C295.212 179.008 295.212 179.008 295.212 179.008C295.212 179.007 295.212 179.008 295.212 179.008C295.212 179.009 295.213 179.01 295.214 179.013C295.217 179.019 295.221 179.029 295.228 179.043C295.24 179.072 295.26 179.118 295.286 179.181C295.339 179.307 295.42 179.5 295.524 179.759C295.732 180.277 296.036 181.058 296.406 182.083C297.145 184.133 298.15 187.16 299.189 191.024C301.268 198.755 303.481 209.818 304.002 223.098L306.5 223ZM296.563 416.5V419C303.412 419 309.019 413.549 309.059 406.651L306.559 406.637L304.059 406.623C304.035 410.721 300.711 414 296.563 414V416.5ZM217 406.5H214.5C214.5 413.404 220.096 419 227 419V416.5V414C222.858 414 219.5 410.642 219.5 406.5H217ZM226.933 373.46L226.501 370.997C220.076 372.125 214.5 377.561 214.5 384.5H217H219.5C219.5 380.393 222.911 376.704 227.365 375.922L226.933 373.46Z" fill="black"/>
<path d="M309 226C309 224.619 307.881 223.5 306.5 223.5C305.119 223.5 304 224.619 304 226H309ZM214.732 347.268C215.709 348.244 217.291 348.244 218.268 347.268L234.178 331.358C235.154 330.382 235.154 328.799 234.178 327.822C233.201 326.846 231.618 326.846 230.642 327.822L216.5 341.964L202.358 327.822C201.382 326.846 199.799 326.846 198.822 327.822C197.846 328.799 197.846 330.382 198.822 331.358L214.732 347.268ZM228.435 292.502L228.824 294.972C246.078 292.254 265.982 284.259 281.622 272.434C297.227 260.636 309 244.687 309 226H306.5H304C304 242.461 293.603 257.107 278.607 268.446C263.645 279.757 244.516 287.439 228.046 290.033L228.435 292.502ZM216.5 305.5H214V345.5H216.5H219V305.5H216.5ZM228.435 292.502L228.046 290.033C220.505 291.221 214 297.431 214 305.5H216.5H219C219 300.315 223.271 295.847 228.824 294.972L228.435 292.502Z" fill="black"/>
<path d="M236 200.5C265.5 200.5 286.5 174.5 287 148C287.32 131.045 287.23 113.067 287.125 102.315C287.071 96.86 282.627 92.5 277.171 92.5H246C240.477 92.5 236 96.9672 236 102.49C236 112.031 236 127.516 236 145C236 174 216 193.748 216 233C216 266 216 277 216 277" stroke="black" stroke-width="5" stroke-linecap="round"/>
</svg>
